<svg width="32" height="32" viewBox="0 0 32 32" fill="none" xmlns="http://www.w3.org/2000/svg">
<g clip-path="url(#clip0_49_2)">
<rect width="32" height="32" rx="2" fill="#3B82F6"/>
<path
  d="M7 24V8H17C20.5 8 23 10.2 23 13.5C23 16.2 21.6 18 19.4 18.7L24 24H19.5L15.4 19H11V24H7ZM11 11V16H16.5C18.1 16 19 15.2 19 13.5C19 11.8 18.1 11 16.5 11H11Z
     M25 25.5C24.2 25.5 23.55 25.25 23.05 24.75C22.55 24.25 22.3 23.65 22.3 22.9C22.3 22.15 22.55 21.55 23.05 21.05C23.55 20.55 24.2 20.3 25 20.3C25.8 20.3 26.45 20.55 26.95 21.05C27.45 21.55 27.7 22.15 27.7 22.9C27.7 23.65 27.45 24.25 26.95 24.75C26.45 25.25 25.8 25.5 25 25.5Z"
  fill="white"
/>
</g>
<defs>
<clipPath id="clip0_49_2">
<rect width="32" height="32" fill="white"/>
</clipPath>
</defs>
</svg>
